<svg id="Layer_1" data-name="Layer 1" xmlns="http://www.w3.org/2000/svg" viewBox="0 0 771 352.96"><defs><style>.cls-1{fill:#fff;}</style></defs><title>DELTARES_ENABLING_DIAP wit</title><path class="cls-1" d="M41,327.07V300.24H61.68v4H45.57v11.25H60.11v4.08H45.57v7.86c0,3.83,1.92,5.59,5,5.59H61.68v4H50.93C44.44,337.07,41,334,41,327.07Z" transform="translate(-41 -128.68)"/><path class="cls-1" d="M69.68,310.17h4.23v5l1.91-1.87a10.41,10.41,0,0,1,7.67-3.48c4.22,0,7.22,2.3,7.22,9.23v18.06H86.58V319c0-4.22-2-5.4-4.22-5.4-2.7,0-5.41,2.7-6.93,4.22l-1.52,1.53v17.71H69.68Z" transform="translate(-41 -128.68)"/><path class="cls-1" d="M98.37,328.19V324c0-8.45,6.88-13.8,14.2-13.8h7.26v26.9h-4.22v-5L113.69,334a10.16,10.16,0,0,1-7.66,3.48C101.81,337.46,98.37,334.76,98.37,328.19Zm15.72,1.18,1.52-1.52V314h-3c-5.8,0-10,3.83-10,10v4.22c0,4.27,1.91,5.45,4.17,5.45C109.47,333.64,112.57,330.89,114.09,329.37Z" transform="translate(-41 -128.68)"/><path class="cls-1" d="M129.41,300.24h4.22v14.89l1.92-1.87a10.12,10.12,0,0,1,7.62-3.48c4.22,0,7.66,2.7,7.66,9.23v4.22c0,8.45-6.88,13.84-14.2,13.84h-7.22Zm7.22,33c5.75,0,10-3.87,10-10V319c0-4.22-1.91-5.4-4.22-5.4-2.65,0-5.75,2.7-7.23,4.22l-1.52,1.53v13.88Z" transform="translate(-41 -128.68)"/><path class="cls-1" d="M158.68,304.07h-4.61v-3.83h8.84v36.83h-4.23Z" transform="translate(-41 -128.68)"/><path class="cls-1" d="M173.17,314h-4.56v-3.83h8.78v26.9h-4.22Zm0-13.76h4.22v4.62h-4.22Z" transform="translate(-41 -128.68)"/><path class="cls-1" d="M186.93,310.17h4.22v5l1.92-1.87a10.37,10.37,0,0,1,7.66-3.48c4.22,0,7.26,2.3,7.26,9.23v18.06h-4.17V319c0-4.22-2-5.4-4.22-5.4-2.7,0-5.41,2.7-6.92,4.22l-1.53,1.53v17.71h-4.22Z" transform="translate(-41 -128.68)"/><path class="cls-1" d="M217.92,342.43h4.61c7.28,0,10.32-2.26,10.32-8.45V332.9l-.39.15c-2.11,1-4.52,2.5-8.4,2.5-4.57,0-8.4-3.09-8.4-9.81V324c0-8.79,6.14-13.8,13.36-13.8h8v23.47c0,9.18-5.35,12.67-14.54,12.67h-4.61Zm14.2-12.66.73-.35V314H229c-5.7,0-9.14,3.83-9.14,10v1.77c0,4.17,1.92,5.94,5,5.94A16.63,16.63,0,0,0,232.12,329.77Z" transform="translate(-41 -128.68)"/><path class="cls-1" d="M260.06,300.24H271c11.11,0,16.26,5.16,16.26,15.28v5.41c0,9.57-4.37,16.14-15.48,16.14H260.06Zm11.68,32.81c7.82,0,10.92-4.07,10.92-12.12v-5.41c0-8-4-11.25-11.7-11.25h-6.28v28.78Z" transform="translate(-41 -128.68)"/><path class="cls-1" d="M293.56,326.67v-5.35c0-7.32,5-11.54,11.49-11.54,5.35,0,9.18,2.3,9.18,7.71,0,4.76-3.05,7.66-8.39,7.66h-8.06v1.52c0,5,3.05,7,7.27,7a18,18,0,0,0,7.26-1.76h.4v3.87a21.35,21.35,0,0,1-7.66,1.71C298.52,337.46,293.56,334.37,293.56,326.67Zm11.1-5c4.22,0,5.4-1.52,5.4-4.17,0-2.9-2-3.88-5-3.88-4.62,0-7.27,2.31-7.27,7.71v.34Z" transform="translate(-41 -128.68)"/><path class="cls-1" d="M321.66,304.07h-4.58v-3.83h8.8v36.83h-4.22Z" transform="translate(-41 -128.68)"/><path class="cls-1" d="M336.53,327.8V314h-4.22v-3.83h4.22v-6.1h4.23v6.1h7.66V314h-7.66v13.07c0,4.95,1.52,6.17,5.74,6.17h2.71v3.83h-3.44C340,337.07,336.53,334.37,336.53,327.8Z" transform="translate(-41 -128.68)"/><path class="cls-1" d="M354,328.19V324c0-8.45,6.87-13.8,14.15-13.8h7.27v26.9h-4.23v-5L369.25,334a10.08,10.08,0,0,1-7.62,3.48C357.4,337.46,354,334.76,354,328.19Zm15.67,1.18,1.52-1.52V314h-3c-5.76,0-9.93,3.83-9.93,10v4.22c0,4.27,1.91,5.45,4.17,5.45C365.07,333.64,368.12,330.89,369.64,329.37Z" transform="translate(-41 -128.68)"/><path class="cls-1" d="M398.37,327.07V300.24H403v27.22c0,3.83,1.91,5.59,5,5.59h10.31v4h-9.92C401.81,337.07,398.37,333.64,398.37,327.07Z" transform="translate(-41 -128.68)"/><path class="cls-1" d="M424.75,314h-4.57v-3.83H429v26.9h-4.22Zm0-13.76H429v4.62h-4.22Z" transform="translate(-41 -128.68)"/><path class="cls-1" d="M439.67,314h-4.22v-3.83h4.22v-1.09c0-5.79,3.49-8.84,8.84-8.84h3.05v3.83h-3.05c-3.44,0-4.62,1.52-4.62,5v1.09h6.93V314h-6.93v23.07h-4.22Z" transform="translate(-41 -128.68)"/><path class="cls-1" d="M454.06,326.67v-5.35c0-7.32,4.92-11.54,11.45-11.54,5.35,0,9.18,2.3,9.18,7.71,0,4.76-3,7.66-8.4,7.66h-8v1.52c0,5,3,7,7.22,7a18.06,18.06,0,0,0,7.27-1.76h.39v3.87a21.35,21.35,0,0,1-7.66,1.71C459,337.46,454.06,334.37,454.06,326.67Zm11.05-5c4.23,0,5.41-1.52,5.41-4.17,0-2.9-2-3.88-5-3.88-4.62,0-7.22,2.31-7.22,7.71v.34Z" transform="translate(-41 -128.68)"/><path class="cls-1" d="M647.68,365.57c-62.71,22.2-64.5,63.64-29.45,66.4,43.82,3.44,21.86,51-47.34,45.41v1.43a105,105,0,0,0,24.27,2.83c29.05,0,54.93-11.05,74.38-30.82,32.94-33.46,25.2-49.13,6.19-49.25-23.41-.14,5.39-16.52,17.77-25.24C706.44,367.2,703,346,647.68,365.57Z" transform="translate(-41 -128.68)"/><path class="cls-1" d="M405.24,221.92S396.7,226,381.91,226c-15.34,0-22.77-7.55-22.77-22.85h42.27c5.74,0,9.23-1,9.23-6.5v-3.07c0-20.22-10.65-36.66-34.53-36.66-24.52,0-38.32,18.57-38.32,43.66,0,29.12,14.81,42,41.25,42,16.86,0,26.2-4.31,26.2-4.31Zm-45.76-33c1.12-9.89,7.31-16.32,16.09-16.32,9.21,0,14,6.09,14,16.32Zm67,26.77c0,19.11,5.77,26.89,21.52,26.89a47.68,47.68,0,0,0,14.08-2.29v-15.5a45,45,0,0,1-7.23,1c-4.48,0-7.29-2.16-7.29-10.58V129H435.71c-5.8,0-9.21,1-9.21,6.65ZM233.75,240.7a292.67,292.67,0,0,0,31,1.83c36.2,0,61.16-21.18,61.16-59.3,0-39-21.81-54.55-56.22-54.55-9.56,0-18,0-26.88.45-5.59.32-9.1,1-9.1,6.65Zm21.47-93.58c3.5-.33,8-.43,12.94-.43,25.42,0,34.89,14.3,34.89,38.11,0,26.43-15.21,39.5-36.13,39.5a81.67,81.67,0,0,1-11.7-.79Zm503.1,93.8a99,99,0,0,0,17.13,1.61c22.35,0,36.55-11.05,36.55-27.11,0-26.55-33.66-20.73-33.66-34,0-5.18,3.95-8.43,12.29-8.43,2.68,0,5.26.22,7.51.22,4.93,0,8.28-1.11,8.28-8.87v-6a99.35,99.35,0,0,0-14.89-1.46c-23.17,0-34.85,12-34.85,26.33,0,27.79,33.13,19.57,33.13,34.08,0,5.37-5.32,8.9-13.36,8.9a70.6,70.6,0,0,1-17.66-2.47Zm-134.89-.22h21.25v-50c0-11.26,3-15.54,11.1-15.54h1.27c6,0,9.2-1,9.2-6.59V158.7H653.42c-23.83,0-30,14.48-30,32.1ZM475.19,215.64c0,19.11,5.52,26.89,23.86,26.89a66.86,66.86,0,0,0,17.08-2.29V224a42.92,42.92,0,0,1-10.37,1.34c-7.05,0-9.63-3.07-9.63-13.64V175.12H506.9c5.78,0,9.23-1,9.23-6.59V158.7h-20V129H484.31c-5.88,0-9.12,1-9.12,6.65ZM581,223.74s-4.14,2.24-13.4,2.24c-13.87,0-19.41-8.89-19.41-24.32,0-20.34,10.22-28.22,22.37-28.22A43.24,43.24,0,0,1,581,174.56Zm20.94-62.21s-10-4.63-29.44-4.63c-29.05,0-46.25,19.24-46.25,47,0,25.09,14.61,38.62,39.7,38.62,23.07,0,36-6.21,36-6.21Zm136.42,60.39S729.71,226,715,226c-15.3,0-22.89-7.55-22.89-22.85h42.39c5.75,0,9.13-1,9.13-6.5v-3.07c0-20.22-10.53-36.66-34.54-36.66-24.38,0-38.34,18.57-38.34,43.66,0,29.12,15,42,41.35,42,16.81,0,26.27-4.31,26.27-4.31Zm-45.88-33c1.16-9.89,7.42-16.32,16-16.32,9.36,0,14.17,6.09,14.17,16.32Z" transform="translate(-41 -128.68)"/><path class="cls-1" d="M577,267.66c-23.09,12.75-54.39,56.87,13.49,46.4,38.85-6,27.82,13.06-2.53,37.19-25.79,20.5-40.08,52-42.24,66.08l1.8,1.8c21.66-46.94,103.23-88.51,145.79-84.3,5.61-9.35-14.92-11.21-19.17-11.69-10.84-1.21-26.47,3.38-14.78-10.15,26.57-30.76-17.82-29.47-61.42-20.2-40.67,8.64-34-11.28-19.65-25.13Z" transform="translate(-41 -128.68)"/></svg>