<svg xmlns="http://www.w3.org/2000/svg" viewBox="0 0 193.3 36.8"><g fill="#004A6D"><path d="M72.8 3.5l-3.4 9.4H68l-2.4-6.7c-.8 2.2-1.7 4.5-2.4 6.7h-1.3l-3.4-9.4h1.8l2.3 6.2 2.3-6.2h1.7l2.3 6.2L71 3.5h1.8zM100 6.1h-1.7v-.8c0-.1 0-.1-.1-.1h-5.8c-.1 0-.1 0-.1.1v5.8c0 .1 0 .1.1.1h5.8c.1 0 .1 0 .1-.1V9.3h-2.1V7.6h3.9v3.5c0 1-.8 1.8-1.8 1.8h-5.8c-1 0-1.8-.8-1.8-1.8V5.3c0-1 .8-1.8 1.8-1.8h5.8c1 0 1.8.8 1.8 1.8v.8zM114.2 5.2h-6.9v2.1h5.6V9h-5.6v2.1h6.9v1.7h-8.6V3.5h8.6v1.7zM127 3.5h1.7v9.4h-1.9L121.1 6v6.9h-1.7V3.5h1.9l5.8 6.9V3.5zM133.9 3.5h1.7v9.4h-1.7V3.5zM148.6 3.5h1.7v9.4h-1.9L142.6 6v6.9h-1.7V3.5h1.9l5.8 6.9V3.5zM164.8 6.1h-1.7v-.8c0-.1 0-.1-.1-.1h-5.8c-.1 0-.1 0-.1.1v5.8c0 .1 0 .1.1.1h5.8c.1 0 .1 0 .1-.1V9.3H161V7.6h3.9v3.5c0 1-.8 1.8-1.8 1.8h-5.8c-1 0-1.8-.8-1.8-1.8V5.3c0-1 .8-1.8 1.8-1.8h5.8c1 0 1.8.8 1.8 1.8v.8zM178.8 5.2h-6.9v2.1h5.6V9h-5.6v2.1h6.9v1.7h-8.6V3.5h8.6v1.7zM191.5 3.5h1.7v9.4h-1.9L185.6 6v6.9h-1.7V3.5h1.9l5.8 6.9V3.5zM84.2 5.3c-.4-1.1-.8-1.8-1.8-1.8h-2.8c-1 0-1.4.7-1.8 1.8L75 12.9h1.8l1.1-3.2H84l1.2 3.2h1.7l-2.7-7.6zM78.5 8l.9-2.7c0-.1 0-.1.1-.1h2.9c.1 0 .1 0 .1.1l.9 2.7h-4.9z"/></g><g fill="#34B233"><path d="M63.8 20.3h.8v4.6c0 .6-.4 1-1 1H60c-.6 0-1-.4-1-1v-4.6h.8v4.6c0 .1.1.2.2.2h3.6c.1 0 .2-.1.2-.2v-4.6zM71.4 20.3h.8v5.6h-1l-3.7-4.5v4.5h-.8v-5.6h1l3.7 4.5v-4.5zM74.3 20.3h.8v5.6h-.8v-5.6zM82.4 20.3h1l-3.2 5.6h-.8l-3.2-5.6h1l2.7 4.6 2.5-4.6zM89.2 21.2h-4.3v1.5h3.4v.8h-3.4V25h4.3v.8h-5.1v-5.6h5.1v1zM96.8 22.9c0 .5-.4 1-1 1h-.6l1.6 1.9v.1h-1l-1.7-2H92v2h-.8v-5.6h4.6c.6 0 1 .5 1 1v1.6zM92 21.2v1.9h3.7c.1 0 .2-.1.2-.2v-1.6c0-.1-.1-.2-.2-.2l-3.7.1zM142.1 22.9c0 .5-.4 1-1 1h-.6l1.6 1.9v.1h-1l-1.7-2h-2.1v2h-.8v-5.6h4.6c.6 0 1 .5 1 1v1.6zm-4.7-1.7v1.9h3.7c.1 0 .2-.1.2-.2v-1.6c0-.1-.1-.2-.2-.2l-3.7.1zM178.5 22.9c0 .5-.4 1-1 1h-.6l1.6 1.9v.1h-1l-1.7-2h-2.1v2h-.8v-5.6h4.6c.6 0 1 .5 1 1v1.6zm-4.7-1.7v1.9h3.7c.1 0 .2-.1.2-.2v-1.6c0-.1-.1-.2-.2-.2l-3.7.1zM104.3 21.7h-.8v-.3c0-.1-.1-.2-.2-.2h-3.6c-.1 0-.2.1-.2.2v1.2c0 .1.1.2.2.2h3.6c.6 0 1 .5 1 1V25c0 .6-.4 1-1 1h-3.6c-.6 0-1-.4-1-1v-.3h.8v.3c0 .1.1.2.2.2h3.6c.1 0 .2-.1.2-.2v-1.2c0-.1-.1-.2-.2-.2h-3.6c-.6 0-1-.5-1-1v-1.2c0-.6.4-1 1-1h3.6c.6 0 1 .4 1 1v.3zM106.4 20.3h.8v5.6h-.8v-5.6zM114.1 20.3v.8h-2.4v4.7h-.8v-4.7h-2.4v-.8h5.6zM120.7 20.3l-2.6 3.5v2.1h-.8v-2.1l-2.6-3.5h1l2 2.5 2-2.5h1zM149.3 21.2H145v1.5h3.4v.8H145V25h4.3v.8h-5.1v-5.6h5.1v1zM156.5 21.7h-.8v-.3c0-.1-.1-.2-.2-.2H152c-.1 0-.2.1-.2.2v1.2c0 .1.1.2.2.2h3.6c.6 0 1 .5 1 1V25c0 .6-.4 1-1 1H152c-.6 0-1-.4-1-1v-.3h.8v.3c0 .1.1.2.2.2h3.6c.1 0 .2-.1.2-.2v-1.2c0-.1-.1-.2-.2-.2H152c-.6 0-1-.5-1-1v-1.2c0-.6.4-1 1-1h3.6c.6 0 1 .4 1 1v.3zM163.7 21.2h-4.3v1.5h3.4v.8h-3.4V25h4.3v.8h-5.1v-5.6h5.1v1zM169 20.3c.6 0 .9.4 1.1 1l1.6 4.6h-.9l-.7-1.9h-3.9l-.7 1.9h-.8l1.7-4.6c.2-.6.4-1 1-1h1.6zm.9 2.8l-.7-1.8c0-.1-.1-.2-.2-.2h-1.6c-.1 0-.1.1-.2.2l-.7 1.8h3.4zM181.4 21.2c-.1 0-.2.1-.2.2V25c0 .1.1.2.2.2h4.5v.8h-4.5c-.6 0-1-.4-1-1v-3.6c0-.6.4-1 1-1h4.5v.8h-4.5zM193.3 20.3v5.6h-.8v-2.4h-4v2.4h-.8v-5.6h.8v2.4h4v-2.4h.8zM131.5 25.1l-1-.6v-1.6h-.8V24s-3-1.9-3.1-1.9c-.1 0-.1-.1-.1-.1v-.5c0-.1.1-.2.2-.2h2.1c.1 0 .2.1.2.2v.4h.8v-.5c-.1-.5-.5-.8-1-.8h-2.1c-.6 0-1 .4-1 1v.6c0 .3.2.4.4.5h-.2c-.6 0-1 .2-1 .7v1.7c0 .6.4 1 1 1h3.6c.4 0 .8-.3.9-.7l1 .7v-1zm-1.8-.2c0 .1-.1.2-.2.2h-3.6c-.1 0-.2-.1-.2-.2v-1.7-.1c0-.1.1-.1.2-.1h1l2.7 1.7v.2z"/></g><g><path fill="#004A6D" d="M53 26c.5-.5-1.2-1.1-1.2-1.1s-1.9-.9-9.3-1.5V26H31.1v-2.9c-2.3-.1-6.8 0-9.9 0V26H9.7v-2.5c-5 .3-8.2 1-8.2 1s-.5.4-.6.4c-.6.4 0 .6.4.8.2.1.2.1.1.3 0 .1-.4.2-.4.4.2.5.8 0 .8.7-.1.7-1.7.3-1.9 1-.1.5.6 0 .6 1.1 0 1 .8 2.1 2.9 2.6.5.1 2.9.1 1.7.8-.1.1-.6.1-.8.1-.2 0-.8 0-.9.2-.2.3.3.3.2.6-.3 0-.9 0-.6.5.1.2.6.4.8.4 1.3-.1 1.2 0 1.6.1-.7.1-1.4.9 1.4.8.1.4.8.4 1.1.3C25.4 31.7 33 33.4 33 32.3c-.2-.5-2.7-.5-3.1-.5-1.6-.1-5 .1-4.8-.3.1-1 17.8-.7 15.8-.1-.1 0-1.3.2-1.5.3-1 .5 2.7.6 3.1.7.4 0 1.5 0 1.3.5-.1.1-1.4 0-1.3.2 0 .2.8.1.9.2.5.8-6.5.4-10.2.5-1.1 0-3.2.1-4.3.3-1.8.2-.3.7 2.6.9 1.5.1 9.5.8 16.2 1.7 2 .4 2.6-.6 2.2-.9-.3-.2.9-.7-.4-1.2-.8-.3-.1-.5-.1-.5.1 0 1.7.4 1.1-.1-.4-.3.3-.1.4-.2 1.5-.1 1.1-.7 1.2-.6-.4-.4.8-.8.5-1.7-.1-.3-1.8-.2-.7-.5.1 0 1.7 0 .2-.8-.3-.2-.7-.2-1.1-.3-1.1-.2-.3-.8.3-.7.7.1 1.3-.3 1.2-1-.1-.8-.4-2.1.5-2.2z"/><path fill="#34B233" d="M11.4 0v26h9.7V9.8h10V26h9.7V0"/></g></svg>